<svg width="128" height="128" viewBox="0 0 128 128" fill="none" xmlns="http://www.w3.org/2000/svg">
<rect width="128" height="128" rx="64" fill="#0D0D0D"/>
<g clip-path="url(#clip0_375_654)">
<path d="M91.6765 52.2495H84.3218V148.407H91.6765V52.2495Z" fill="white"/>
<path d="M62.096 30.1089V37.5025C49.8497 37.5025 39.9107 47.4396 39.9107 59.6833C39.9107 71.9272 49.8497 81.8643 62.096 81.8643V89.258C53.2641 89.258 45.3323 85.3817 39.9107 79.239V148.407H32.5156V59.6835C32.5156 59.6835 32.5156 59.6836 32.5156 59.6835C32.5157 43.3584 45.7677 30.1089 62.096 30.1089Z" fill="white"/>
<path d="M62.096 30.1089H91.6764V37.5025H62.096V30.1089Z" fill="white"/>
<path d="M69.4911 81.8643H62.096V89.258H69.4911V81.8643Z" fill="white"/>
</g>
<defs>
<clipPath id="clip0_375_654">
<rect x="11" y="11" width="106" height="106" rx="53" fill="white"/>
</clipPath>
</defs>
</svg>
