{
	"asset":{
		"generator":"Khronos glTF Blender I/O v4.0.44",
		"version":"2.0"
	},
	"extensionsUsed":[
		"KHR_materials_emissive_strength",
		"KHR_materials_specular",
		"KHR_materials_ior",
		"KHR_texture_transform"
	],
	"extensionsRequired":[
		"KHR_texture_transform"
	],
	"scene":0,
	"scenes":[
		{
			"name":"Scene",
			"nodes":[
				3
			]
		}
	],
	"nodes":[
		{
			"mesh":0,
			"name":"Keyboard",
			"rotation":[
				0.011387898586690426,
				0,
				0,
				0.9999351501464844
			],
			"translation":[
				-0.06706652045249939,
				0.008945761248469353,
				-0.0008800496580079198
			]
		},
		{
			"mesh":1,
			"name":"Screen"
		},
		{
			"children":[
				1
			],
			"mesh":2,
			"name":"Screen_Frame",
			"rotation":[
				0.6281983852386475,
				0,
				0,
				0.7780532240867615
			],
			"translation":[
				0,
				0.007852381095290184,
				-0.12199685722589493
			]
		},
		{
			"children":[
				0,
				2
			],
			"mesh":3,
			"name":"Laptop"
		}
	],
	"materials":[
		{
			"doubleSided":true,
			"emissiveFactor":[
				1,
				1,
				1
			],
			"emissiveTexture":{
				"index":0
			},
			"extensions":{
				"KHR_materials_emissive_strength":{
					"emissiveStrength":5
				},
				"KHR_materials_specular":{
					"specularColorFactor":[
						1.2000000476837158,
						1.2000000476837158,
						1.2000000476837158
					]
				},
				"KHR_materials_ior":{
					"ior":1.4500000476837158
				}
			},
			"name":"Keyboard",
			"pbrMetallicRoughness":{
				"baseColorTexture":{
					"index":1
				},
				"metallicFactor":0,
				"metallicRoughnessTexture":{
					"extensions":{
						"KHR_texture_transform":{
							"offset":[
								-0.05999999865889549,
								0
							]
						}
					},
					"index":2
				}
			}
		},
		{
			"doubleSided":true,
			"extensions":{
				"KHR_materials_specular":{
					"specularFactor":0.800000011920929
				},
				"KHR_materials_ior":{
					"ior":1.4500000476837158
				}
			},
			"name":"Screen",
			"pbrMetallicRoughness":{
				"baseColorTexture":{
					"index":3
				},
				"metallicFactor":0,
				"roughnessFactor":0.05000000074505806
			}
		},
		{
			"doubleSided":true,
			"extensions":{
				"KHR_materials_specular":{
					"specularFactor":0
				},
				"KHR_materials_ior":{
					"ior":1.4500000476837158
				}
			},
			"name":"Base",
			"pbrMetallicRoughness":{
				"baseColorFactor":[
					0.800000011920929,
					0.800000011920929,
					0.800000011920929,
					1
				],
				"metallicRoughnessTexture":{
					"extensions":{
						"KHR_texture_transform":{
							"offset":[
								0,
								-2
							],
							"scale":[
								3,
								3
							]
						}
					},
					"index":4
				}
			}
		},
		{
			"doubleSided":true,
			"extensions":{
				"KHR_materials_specular":{
					"specularFactor":0.4000000059604645
				},
				"KHR_materials_ior":{
					"ior":1.4500000476837158
				}
			},
			"name":"ScreenFrame",
			"pbrMetallicRoughness":{
				"baseColorFactor":[
					0.0063701532781124115,
					0.0063701532781124115,
					0.0063701532781124115,
					1
				],
				"metallicFactor":0,
				"roughnessFactor":0.25
			}
		},
		{
			"doubleSided":true,
			"extensions":{
				"KHR_materials_specular":{
					"specularColorFactor":[
						2.0,
						2.0,
						2.0
					]
				},
				"KHR_materials_ior":{
					"ior":1.4500000476837158
				}
			},
			"name":"ScreenShinyBorder",
			"pbrMetallicRoughness":{
				"baseColorFactor":[
					0.86888587474823,
					0.86888587474823,
					0.86888587474823,
					1
				],
				"roughnessFactor":0.15000000596046448
			}
		},
		{
			"doubleSided":true,
			"emissiveFactor":[
				1,
				1,
				1
			],
			"extensions":{
				"KHR_materials_emissive_strength":{
					"emissiveStrength":20
				}
			},
			"name":"Lights",
			"pbrMetallicRoughness":{
				"baseColorFactor":[
					0,
					0,
					0,
					1
				]
			}
		},
		{
			"doubleSided":true,
			"extensions":{
				"KHR_materials_specular":{
					"specularColorFactor":[
						1.399999976158142,
						1.399999976158142,
						1.399999976158142
					]
				},
				"KHR_materials_ior":{
					"ior":1.4500000476837158
				}
			},
			"name":"Touchpad",
			"pbrMetallicRoughness":{
				"baseColorTexture":{
					"extensions":{
						"KHR_texture_transform":{
							"offset":[
								4.899999618530273,
								-1
							],
							"scale":[
								2,
								2
							]
						}
					},
					"index":5
				},
				"metallicFactor":0,
				"metallicRoughnessTexture":{
					"extensions":{
						"KHR_texture_transform":{
							"offset":[
								4.899999618530273,
								-1
							],
							"scale":[
								2,
								2
							]
						}
					},
					"index":6
				}
			}
		}
	],
	"meshes":[
		{
			"name":"Plane.006",
			"primitives":[
				{
					"attributes":{
						"POSITION":0,
						"NORMAL":1,
						"TEXCOORD_0":2
					},
					"indices":3,
					"material":0
				}
			]
		},
		{
			"name":"Plane.007",
			"primitives":[
				{
					"attributes":{
						"POSITION":4,
						"NORMAL":5,
						"TEXCOORD_0":6
					},
					"indices":7,
					"material":1
				}
			]
		},
		{
			"name":"Plane.001",
			"primitives":[
				{
					"attributes":{
						"POSITION":8,
						"NORMAL":9,
						"TEXCOORD_0":10
					},
					"indices":11,
					"material":2
				},
				{
					"attributes":{
						"POSITION":12,
						"NORMAL":13,
						"TEXCOORD_0":14
					},
					"indices":15,
					"material":3
				},
				{
					"attributes":{
						"POSITION":16,
						"NORMAL":17,
						"TEXCOORD_0":18
					},
					"indices":19,
					"material":4
				}
			]
		},
		{
			"name":"Plane",
			"primitives":[
				{
					"attributes":{
						"POSITION":20,
						"NORMAL":21,
						"TEXCOORD_0":22
					},
					"indices":23,
					"material":2
				},
				{
					"attributes":{
						"POSITION":24,
						"NORMAL":25,
						"TEXCOORD_0":26
					},
					"indices":27,
					"material":5
				},
				{
					"attributes":{
						"POSITION":28,
						"NORMAL":29,
						"TEXCOORD_0":30
					},
					"indices":31,
					"material":2
				},
				{
					"attributes":{
						"POSITION":32,
						"NORMAL":33,
						"TEXCOORD_0":34
					},
					"indices":35,
					"material":6
				}
			]
		}
	],
	"textures":[
		{
			"sampler":0,
			"source":0
		},
		{
			"sampler":0,
			"source":0
		},
		{
			"sampler":0,
			"source":1
		},
		{
			"sampler":0,
			"source":2
		},
		{
			"sampler":0,
			"source":3
		},
		{
			"sampler":0,
			"source":4
		},
		{
			"sampler":0,
			"source":1
		}
	],
	"images":[
		{
			"mimeType":"image/png",
			"name":"Keyboard Symbols",
			"uri":"Keyboard%20Symbols.png"
		},
		{
			"mimeType":"image/png",
			"name":"Fingerprints006_1K_Roughness",
			"uri":"Fingerprints006_1K_Roughness.png"
		},
		{
			"mimeType":"image/jpeg",
			"name":"back",
			"uri":"back.jpg"
		},
		{
			"mimeType":"image/png",
			"name":"roughImp_140",
			"uri":"roughImp_140.png"
		},
		{
			"mimeType":"image/jpeg",
			"name":"Fingerprints006_1K_Color",
			"uri":"Fingerprints006_1K_Color.jpg"
		}
	],
	"accessors":[
		{
			"bufferView":0,
			"componentType":5126,
			"count":1580,
			"max":[
				0.20344197750091553,
				0,
				0.008441241458058357
			],
			"min":[
				-0.06959215551614761,
				0,
				-0.0932457447052002
			],
			"type":"VEC3"
		},
		{
			"bufferView":1,
			"componentType":5126,
			"count":1580,
			"type":"VEC3"
		},
		{
			"bufferView":2,
			"componentType":5126,
			"count":1580,
			"type":"VEC2"
		},
		{
			"bufferView":3,
			"componentType":5123,
			"count":4266,
			"type":"SCALAR"
		},
		{
			"bufferView":4,
			"componentType":5126,
			"count":4,
			"max":[
				0.15725678205490112,
				-0.0006981126498430967,
				-0.02294299006462097
			],
			"min":[
				-0.15725678205490112,
				-0.0006981127662584186,
				-0.23197078704833984
			],
			"type":"VEC3"
		},
		{
			"bufferView":5,
			"componentType":5126,
			"count":4,
			"type":"VEC3"
		},
		{
			"bufferView":6,
			"componentType":5126,
			"count":4,
			"type":"VEC2"
		},
		{
			"bufferView":7,
			"componentType":5123,
			"count":6,
			"type":"SCALAR"
		},
		{
			"bufferView":8,
			"componentType":5126,
			"count":28,
			"max":[
				0.1676555722951889,
				-0.0042762551456689835,
				-0.0020944196730852127
			],
			"min":[
				-0.1676555722951889,
				-0.004276256542652845,
				-0.2419665902853012
			],
			"type":"VEC3"
		},
		{
			"bufferView":9,
			"componentType":5126,
			"count":28,
			"type":"VEC3"
		},
		{
			"bufferView":10,
			"componentType":5126,
			"count":28,
			"type":"VEC2"
		},
		{
			"bufferView":11,
			"componentType":5123,
			"count":78,
			"type":"SCALAR"
		},
		{
			"bufferView":12,
			"componentType":5126,
			"count":48,
			"max":[
				0.16749167442321777,
				-9.604264050722122e-10,
				-0.00225831032730639
			],
			"min":[
				-0.16749167442321777,
				-0.0006981127662584186,
				-0.24180269241333008
			],
			"type":"VEC3"
		},
		{
			"bufferView":13,
			"componentType":5126,
			"count":48,
			"type":"VEC3"
		},
		{
			"bufferView":14,
			"componentType":5126,
			"count":48,
			"type":"VEC2"
		},
		{
			"bufferView":15,
			"componentType":5123,
			"count":120,
			"type":"SCALAR"
		},
		{
			"bufferView":16,
			"componentType":5126,
			"count":184,
			"max":[
				0.16974999010562897,
				-1.2161502915830624e-09,
				0
			],
			"min":[
				-0.16974999010562897,
				-0.004276256542652845,
				-0.24406100809574127
			],
			"type":"VEC3"
		},
		{
			"bufferView":17,
			"componentType":5126,
			"count":184,
			"type":"VEC3"
		},
		{
			"bufferView":18,
			"componentType":5126,
			"count":184,
			"type":"VEC2"
		},
		{
			"bufferView":19,
			"componentType":5123,
			"count":504,
			"type":"SCALAR"
		},
		{
			"bufferView":20,
			"componentType":5126,
			"count":19125,
			"max":[
				0.16974999010562897,
				0.011201669462025166,
				0.12199999392032623
			],
			"min":[
				-0.16974999010562897,
				-0.0002395643386989832,
				-0.12199999392032623
			],
			"type":"VEC3"
		},
		{
			"bufferView":21,
			"componentType":5126,
			"count":19125,
			"type":"VEC3"
		},
		{
			"bufferView":22,
			"componentType":5126,
			"count":19125,
			"type":"VEC2"
		},
		{
			"bufferView":23,
			"componentType":5123,
			"count":64773,
			"type":"SCALAR"
		},
		{
			"bufferView":24,
			"componentType":5126,
			"count":1580,
			"max":[
				0.13660044968128204,
				0.008493096567690372,
				0.007725140079855919
			],
			"min":[
				-0.1368836760520935,
				0.00616699643433094,
				-0.09438535571098328
			],
			"type":"VEC3"
		},
		{
			"bufferView":25,
			"componentType":5126,
			"count":1580,
			"type":"VEC3"
		},
		{
			"bufferView":26,
			"componentType":5126,
			"count":1580,
			"type":"VEC2"
		},
		{
			"bufferView":27,
			"componentType":5123,
			"count":4266,
			"type":"SCALAR"
		},
		{
			"bufferView":28,
			"componentType":5126,
			"count":794,
			"max":[
				0.16972070932388306,
				0.00847337581217289,
				-0.06082850322127342
			],
			"min":[
				-0.16972070932388306,
				0.0031340550631284714,
				-0.10133445262908936
			],
			"type":"VEC3"
		},
		{
			"bufferView":29,
			"componentType":5126,
			"count":794,
			"type":"VEC3"
		},
		{
			"bufferView":30,
			"componentType":5126,
			"count":794,
			"type":"VEC2"
		},
		{
			"bufferView":31,
			"componentType":5123,
			"count":1995,
			"type":"SCALAR"
		},
		{
			"bufferView":32,
			"componentType":5126,
			"count":16,
			"max":[
				0.0567106157541275,
				0.007242014165967703,
				0.10341737419366837
			],
			"min":[
				-0.056710630655288696,
				0.005503487307578325,
				0.02568933181464672
			],
			"type":"VEC3"
		},
		{
			"bufferView":33,
			"componentType":5126,
			"count":16,
			"type":"VEC3"
		},
		{
			"bufferView":34,
			"componentType":5126,
			"count":16,
			"type":"VEC2"
		},
		{
			"bufferView":35,
			"componentType":5123,
			"count":42,
			"type":"SCALAR"
		}
	],
	"bufferViews":[
		{
			"buffer":0,
			"byteLength":18960,
			"byteOffset":0,
			"target":34962
		},
		{
			"buffer":0,
			"byteLength":18960,
			"byteOffset":18960,
			"target":34962
		},
		{
			"buffer":0,
			"byteLength":12640,
			"byteOffset":37920,
			"target":34962
		},
		{
			"buffer":0,
			"byteLength":8532,
			"byteOffset":50560,
			"target":34963
		},
		{
			"buffer":0,
			"byteLength":48,
			"byteOffset":59092,
			"target":34962
		},
		{
			"buffer":0,
			"byteLength":48,
			"byteOffset":59140,
			"target":34962
		},
		{
			"buffer":0,
			"byteLength":32,
			"byteOffset":59188,
			"target":34962
		},
		{
			"buffer":0,
			"byteLength":12,
			"byteOffset":59220,
			"target":34963
		},
		{
			"buffer":0,
			"byteLength":336,
			"byteOffset":59232,
			"target":34962
		},
		{
			"buffer":0,
			"byteLength":336,
			"byteOffset":59568,
			"target":34962
		},
		{
			"buffer":0,
			"byteLength":224,
			"byteOffset":59904,
			"target":34962
		},
		{
			"buffer":0,
			"byteLength":156,
			"byteOffset":60128,
			"target":34963
		},
		{
			"buffer":0,
			"byteLength":576,
			"byteOffset":60284,
			"target":34962
		},
		{
			"buffer":0,
			"byteLength":576,
			"byteOffset":60860,
			"target":34962
		},
		{
			"buffer":0,
			"byteLength":384,
			"byteOffset":61436,
			"target":34962
		},
		{
			"buffer":0,
			"byteLength":240,
			"byteOffset":61820,
			"target":34963
		},
		{
			"buffer":0,
			"byteLength":2208,
			"byteOffset":62060,
			"target":34962
		},
		{
			"buffer":0,
			"byteLength":2208,
			"byteOffset":64268,
			"target":34962
		},
		{
			"buffer":0,
			"byteLength":1472,
			"byteOffset":66476,
			"target":34962
		},
		{
			"buffer":0,
			"byteLength":1008,
			"byteOffset":67948,
			"target":34963
		},
		{
			"buffer":0,
			"byteLength":229500,
			"byteOffset":68956,
			"target":34962
		},
		{
			"buffer":0,
			"byteLength":229500,
			"byteOffset":298456,
			"target":34962
		},
		{
			"buffer":0,
			"byteLength":153000,
			"byteOffset":527956,
			"target":34962
		},
		{
			"buffer":0,
			"byteLength":129546,
			"byteOffset":680956,
			"target":34963
		},
		{
			"buffer":0,
			"byteLength":18960,
			"byteOffset":810504,
			"target":34962
		},
		{
			"buffer":0,
			"byteLength":18960,
			"byteOffset":829464,
			"target":34962
		},
		{
			"buffer":0,
			"byteLength":12640,
			"byteOffset":848424,
			"target":34962
		},
		{
			"buffer":0,
			"byteLength":8532,
			"byteOffset":861064,
			"target":34963
		},
		{
			"buffer":0,
			"byteLength":9528,
			"byteOffset":869596,
			"target":34962
		},
		{
			"buffer":0,
			"byteLength":9528,
			"byteOffset":879124,
			"target":34962
		},
		{
			"buffer":0,
			"byteLength":6352,
			"byteOffset":888652,
			"target":34962
		},
		{
			"buffer":0,
			"byteLength":3990,
			"byteOffset":895004,
			"target":34963
		},
		{
			"buffer":0,
			"byteLength":192,
			"byteOffset":898996,
			"target":34962
		},
		{
			"buffer":0,
			"byteLength":192,
			"byteOffset":899188,
			"target":34962
		},
		{
			"buffer":0,
			"byteLength":128,
			"byteOffset":899380,
			"target":34962
		},
		{
			"buffer":0,
			"byteLength":84,
			"byteOffset":899508,
			"target":34963
		}
	],
	"samplers":[
		{
			"magFilter":9729,
			"minFilter":9987
		}
	],
	"buffers":[
		{
			"byteLength":899592,
			"uri":"laptop.bin"
		}
	]
}
